NBA.19.06.2012.Finals.G4.Thunder@Heat.H264.MKV.30fps.AAC.5.1.720p

Ripper: ORENJI

Format                           : Matroska
Format version                   : Version 2
File size                        : 3.90 GiB
Duration                         : 1h 49mn
Overall bit rate                 : 5 076 Kbps
Encoded date                     : UTC 2010-02-22 21:41:29
Writing application              : no_variable_data
Writing library                  : no_variable_data

Video
ID                               : 2
Format                           : AVC
Format/Info                      : Advanced Video Codec
Format profile                   : High@L4.1
Format settings, CABAC           : Yes
Format settings, ReFrames        : 5 frames
Format settings, GOP             : M=1, N=2
Codec ID                         : V_MPEG4/ISO/AVC
Duration                         : 1h 49mn
Bit rate                         : 4 591 Kbps
Width                            : 1 280 pixels
Height                           : 720 pixels
Display aspect ratio             : 16:9
Frame rate                       : 29.970 fps
Color space                      : YUV
Chroma subsampling               : 4:2:0
Bit depth                        : 8 bits
Scan type                        : Progressive
Bits/(Pixel*Frame)               : 0.166
Stream size                      : 3.53 GiB (90%)
Writing library                  : x264 core 125 r2200 999b753
Language                         : English

Audio
ID                               : 1
Format                           : AC-3
Format/Info                      : Audio Coding 3
Mode extension                   : CM (complete main)
Codec ID                         : A_AC3
Duration                         : 1h 49mn
Bit rate mode                    : Constant
Bit rate                         : 384 Kbps
Channel(s)                       : 6 channels
Channel positions                : Front: L C R, Side: L R, LFE
Sampling rate                    : 48.0 KHz
Bit depth                        : 16 bits
Compression mode                 : Lossy
Stream size                      : 302 MiB (8%)

Enjoy!!!